# xmcd CD database file
#
# Track frame offsets:
#	150
#	18657
#	39012
#	51642
#	74900
#	100312
#	125827
#	140807
#	163197
#
# Disc length: 2683 seconds
#
# Revision: 3
# Processed by: cddbd v1.5.2PL0 Copyright (c) Steve Scherf et al.
# Submitted via: CDex 1.51
#
DISCID=900a7909
DTITLE=Jeff Beck - Blow By Blow
DYEAR=1975
DGENRE=Fusion
TTITLE0=You Know What I Mean
TTITLE1=She's A Woman
TTITLE2=Constipated Duck
TTITLE3=Air Blower
TTITLE4=Scatterbrain
TTITLE5=Cause We've Ended As Lovers
TTITLE6=Thelonius
TTITLE7=Freeway Jam
TTITLE8=Diamond Dust
EXTD=YEAR: 1975
EXTT0=
EXTT1=
EXTT2=
EXTT3=
EXTT4=
EXTT5=
EXTT6=
EXTT7=
EXTT8=
PLAYORDER=
